<svg width="26" height="26" viewBox="0 0 26 26" fill="none" xmlns="http://www.w3.org/2000/svg">
<path d="M13 0C5.824 0 0 5.824 0 13C0 20.176 5.824 26 13 26C20.176 26 26 20.176 26 13C26 5.824 20.176 0 13 0ZM19.032 8.84C18.837 10.894 17.992 15.886 17.563 18.187C17.381 19.162 17.017 19.487 16.679 19.526C15.925 19.591 15.353 19.032 14.625 18.551C13.481 17.797 12.831 17.329 11.726 16.601C10.439 15.756 11.271 15.288 12.012 14.534C12.207 14.339 15.535 11.31 15.6 11.037C15.609 10.9957 15.6078 10.9527 15.5965 10.9119C15.5852 10.8712 15.5641 10.8338 15.535 10.803C15.457 10.738 15.353 10.764 15.262 10.777C15.145 10.803 13.325 12.012 9.776 14.404C9.256 14.755 8.788 14.937 8.372 14.924C7.904 14.911 7.02 14.664 6.357 14.443C5.538 14.183 4.901 14.04 4.953 13.585C4.979 13.351 5.304 13.117 5.915 12.87C9.711 11.219 12.233 10.127 13.494 9.607C17.108 8.099 17.849 7.839 18.343 7.839C18.447 7.839 18.694 7.865 18.85 7.995C18.98 8.099 19.019 8.242 19.032 8.346C19.019 8.424 19.045 8.658 19.032 8.84Z" fill="white"/>
</svg>
