<svg width="28" height="20" viewBox="0 0 28 20" fill="none" xmlns="http://www.w3.org/2000/svg">
<path d="M11.3337 14.0001L18.2537 10.0001L11.3337 6.00008V14.0001ZM26.747 3.56008C26.9203 4.18675 27.0403 5.02675 27.1203 6.09341C27.2137 7.16008 27.2537 8.08008 27.2537 8.88008L27.3337 10.0001C27.3337 12.9201 27.1203 15.0667 26.747 16.4401C26.4137 17.6401 25.6403 18.4134 24.4403 18.7467C23.8137 18.9201 22.667 19.0401 20.907 19.1201C19.1737 19.2134 17.587 19.2534 16.1203 19.2534L14.0003 19.3334C8.41366 19.3334 4.93366 19.1201 3.56033 18.7467C2.36033 18.4134 1.58699 17.6401 1.25366 16.4401C1.08033 15.8134 0.960326 14.9734 0.880326 13.9067C0.786992 12.8401 0.746992 11.9201 0.746992 11.1201L0.666992 10.0001C0.666992 7.08008 0.880326 4.93341 1.25366 3.56008C1.58699 2.36008 2.36033 1.58675 3.56033 1.25341C4.18699 1.08008 5.33366 0.960081 7.09366 0.880081C8.82699 0.786748 10.4137 0.746748 11.8803 0.746748L14.0003 0.666748C19.587 0.666748 23.067 0.880081 24.4403 1.25341C25.6403 1.58675 26.4137 2.36008 26.747 3.56008Z" fill="white"/>
</svg>
